<svg width="184" height="37" viewBox="0 0 184 37" fill="none" xmlns="http://www.w3.org/2000/svg">
<circle opacity="0.5" cx="18.2255" cy="18.6571" r="17.2382" stroke="#6942BD" stroke-width="1.04474"/>
<path d="M24.4947 16.8478C25.8877 17.652 25.8877 19.6626 24.4947 20.4669L16.6591 24.9907C15.2661 25.795 13.5249 24.7897 13.5249 23.1812L13.5249 14.1335C13.5249 12.525 15.2661 11.5197 16.6591 12.3239L24.4947 16.8478Z" fill="#6942BD"/>
<path d="M55.317 20.8177C55.4842 20.7341 55.8185 20.6338 56.3367 20.6338C57.2561 20.6338 58.259 21.1687 58.259 22.4224C58.259 23.4087 57.5235 24.2612 56.203 24.2612C54.9994 24.2612 54.0968 23.4087 54.0466 22.155L52.0909 22.5562C52.2246 24.3615 53.7123 25.9829 56.2197 25.9829C58.7939 25.9829 60.2816 24.2946 60.2816 22.4392C60.2816 20.3497 58.6602 19.1796 57.0388 19.1461L59.9808 16.5719V14.9003H52.4586V16.6555H57.3898L54.3977 19.33L55.317 20.8177ZM64.2898 23.8934V15.7194H66.4127C68.4688 15.7194 70.1571 17.0566 70.1571 19.8315C70.1571 22.5729 68.452 23.8934 66.396 23.8934H64.2898ZM66.4629 25.7322C69.6723 25.7322 72.2466 23.626 72.2466 19.8315C72.2466 16.0203 69.7057 13.8806 66.4796 13.8806H62.2839V25.7322H66.4629ZM87.0021 15.7695V13.8806H77.2902V15.7695H81.1348V25.7322H83.1407V15.7695H87.0021ZM90.4739 24.2445C89.2871 24.2445 88.2005 23.3418 88.2005 21.6535C88.2005 19.9652 89.2871 19.096 90.4739 19.096C91.6775 19.096 92.7473 19.9652 92.7473 21.6535C92.7473 23.3585 91.6775 24.2445 90.4739 24.2445ZM90.4739 17.3408C88.0501 17.3408 86.2615 19.1628 86.2615 21.6535C86.2615 24.1609 88.0501 25.9829 90.4739 25.9829C92.9144 25.9829 94.703 24.1609 94.703 21.6535C94.703 19.1628 92.9144 17.3408 90.4739 17.3408ZM101.827 24.8295C101.827 25.1638 101.86 25.5483 101.894 25.7322H103.749C103.716 25.4313 103.666 24.9131 103.666 24.2445V17.5915H101.727V22.4057C101.727 23.4755 101.142 24.2277 100.022 24.2277C98.8514 24.2277 98.3834 23.3752 98.3834 22.3723V17.5915H96.4443V22.7233C96.4443 24.5286 97.581 25.9662 99.5201 25.9662C100.473 25.9662 101.426 25.565 101.827 24.8295ZM110.939 17.5414C110.856 17.5247 110.655 17.4913 110.421 17.4913C109.351 17.4913 108.449 18.0094 108.064 18.8954V17.5915H106.175V25.7322H108.115V21.8541C108.115 20.3329 108.8 19.4637 110.304 19.4637C110.505 19.4637 110.722 19.4804 110.939 19.5139V17.5414ZM120.249 24.2445C119.062 24.2445 117.976 23.3418 117.976 21.6535C117.976 19.9652 119.062 19.096 120.249 19.096C121.453 19.096 122.522 19.9652 122.522 21.6535C122.522 23.3585 121.453 24.2445 120.249 24.2445ZM120.249 17.3408C117.825 17.3408 116.037 19.1628 116.037 21.6535C116.037 24.1609 117.825 25.9829 120.249 25.9829C122.69 25.9829 124.478 24.1609 124.478 21.6535C124.478 19.1628 122.69 17.3408 120.249 17.3408ZM129.963 15.2848C130.33 15.2848 130.548 15.3349 130.665 15.3683V13.7135C130.531 13.6466 130.13 13.5463 129.645 13.5463C127.973 13.5463 126.803 14.6496 126.803 16.4716V17.5915H125.383V19.2798H126.803V25.7322H128.759V19.2798H130.648V17.5915H128.759V16.5217C128.759 15.5188 129.444 15.2848 129.963 15.2848ZM144.299 16.6555C144.032 15.3349 142.945 13.6299 140.154 13.6299C137.947 13.6299 136.125 15.268 136.125 17.2572C136.125 19.0291 137.329 20.2159 139.134 20.5837L140.806 20.9347C141.825 21.152 142.394 21.7705 142.394 22.5394C142.394 23.4588 141.658 24.1776 140.237 24.1776C138.532 24.1776 137.646 23.0409 137.529 21.8039L135.657 22.3389C135.841 24.0439 137.228 25.9829 140.237 25.9829C142.945 25.9829 144.433 24.2277 144.433 22.389C144.433 20.7174 143.313 19.3969 141.223 18.979L139.518 18.6279C138.599 18.4273 138.131 17.859 138.131 17.1068C138.131 16.2041 138.967 15.4018 140.17 15.4018C141.758 15.4018 142.377 16.4883 142.494 17.2238L144.299 16.6555ZM147.896 28.9082V24.8128C148.314 25.4313 149.2 25.9328 150.37 25.9328C152.71 25.9328 154.198 24.094 154.198 21.6535C154.198 19.2464 152.844 17.4077 150.437 17.4077C149.183 17.4077 148.247 17.9927 147.846 18.6948V17.5915H145.974V28.9082H147.896ZM152.259 21.6535C152.259 23.2081 151.356 24.211 150.069 24.211C148.799 24.211 147.879 23.2081 147.879 21.6535C147.879 20.1324 148.799 19.1294 150.069 19.1294C151.373 19.1294 152.259 20.1324 152.259 21.6535ZM155.56 23.5257C155.56 24.8128 156.614 25.9829 158.319 25.9829C159.639 25.9829 160.441 25.3143 160.826 24.6958C160.826 25.3477 160.893 25.682 160.91 25.7322H162.715C162.698 25.6486 162.615 25.1638 162.615 24.4283V20.3831C162.615 18.7617 161.662 17.3408 159.154 17.3408C157.148 17.3408 155.878 18.5945 155.728 19.9986L157.499 20.3998C157.583 19.5807 158.151 18.9288 159.171 18.9288C160.241 18.9288 160.709 19.4804 160.709 20.1658C160.709 20.45 160.575 20.684 160.107 20.7508L158.018 21.0684C156.63 21.269 155.56 22.0714 155.56 23.5257ZM158.686 24.4618C157.917 24.4618 157.499 23.9603 157.499 23.4087C157.499 22.74 157.984 22.4057 158.586 22.3054L160.709 21.9878V22.3556C160.709 23.9436 159.773 24.4618 158.686 24.4618ZM168.486 19.1294C169.723 19.1294 170.275 19.9318 170.458 20.6506L172.197 20.0153C171.863 18.7115 170.659 17.3408 168.469 17.3408C166.129 17.3408 164.307 19.1461 164.307 21.6535C164.307 24.1275 166.129 25.9829 168.519 25.9829C170.659 25.9829 171.879 24.5955 172.264 23.3251L170.559 22.7066C170.375 23.3251 169.79 24.211 168.519 24.211C167.299 24.211 166.246 23.2917 166.246 21.6535C166.246 20.0153 167.299 19.1294 168.486 19.1294ZM175.258 20.7676C175.325 19.8983 176.027 18.9622 177.247 18.9622C178.585 18.9622 179.22 19.8148 179.253 20.7676H175.258ZM179.471 22.8905C179.203 23.6928 178.601 24.3113 177.431 24.3113C176.228 24.3113 175.258 23.4254 175.208 22.1884H181.159C181.176 22.155 181.209 21.8875 181.209 21.5699C181.209 18.9957 179.738 17.3408 177.231 17.3408C175.175 17.3408 173.269 19.0458 173.269 21.6201C173.269 24.3782 175.225 25.9829 177.431 25.9829C179.387 25.9829 180.674 24.8295 181.109 23.4087L179.471 22.8905Z" fill="#6942BD"/>
</svg>
