<svg width="178" height="181" viewBox="0 0 178 181" fill="none" xmlns="http://www.w3.org/2000/svg">
<g filter="url(#filter0_d_8_90)">
<rect x="28.584" y="20.8091" width="112.832" height="112.832" rx="5.22371" fill="white"/>
</g>
<path d="M76.4534 33.7554V32.8047H70.4775V33.7554H72.9536V40.2119H73.9774V33.7554H76.4534ZM78.5541 39.491C77.7183 39.491 76.987 38.8642 76.987 37.6941C76.987 36.5344 77.7183 35.9076 78.5541 35.9076C79.3899 35.9076 80.1212 36.5344 80.1212 37.6941C80.1212 38.8642 79.3899 39.491 78.5541 39.491ZM78.5541 35.03C77.0497 35.03 75.984 36.1688 75.984 37.6941C75.984 39.2299 77.0497 40.3686 78.5541 40.3686C80.0585 40.3686 81.1242 39.2299 81.1242 37.6941C81.1242 36.1688 80.0585 35.03 78.5541 35.03ZM82.9657 37.6836C82.9657 36.6493 83.5508 35.918 84.4492 35.918C85.3477 35.918 85.891 36.6284 85.891 37.6627C85.891 38.697 85.3373 39.4806 84.4388 39.4806C83.4985 39.4806 82.9657 38.7179 82.9657 37.6836ZM85.9014 39.5328C85.9014 39.8358 85.9328 40.097 85.9537 40.2119H86.9044C86.8939 40.1283 86.8521 39.7627 86.8521 39.2821V32.648H85.8805V35.8971C85.7134 35.4897 85.2328 35.0509 84.3448 35.0509C82.9239 35.0509 81.9627 36.2628 81.9627 37.6836C81.9627 39.1776 82.8717 40.3477 84.3448 40.3477C85.1283 40.3477 85.6611 39.9298 85.9014 39.4493V39.5328ZM88.2092 38.8642C88.2092 39.6582 88.8674 40.3686 89.8912 40.3686C90.7897 40.3686 91.2912 39.888 91.5106 39.5328C91.5106 39.8985 91.5419 40.0865 91.5628 40.2119H92.524C92.5031 40.0865 92.4613 39.8254 92.4613 39.3866V36.8687C92.4613 35.8867 91.8762 35.03 90.3718 35.03C89.2853 35.03 88.4181 35.6986 88.3136 36.6598L89.2539 36.8792C89.3166 36.2941 89.7031 35.8658 90.3927 35.8658C91.1553 35.8658 91.4792 36.2732 91.4792 36.7643C91.4792 36.9419 91.3956 37.0986 91.0927 37.1404L89.7345 37.3389C88.8674 37.4642 88.2092 37.9657 88.2092 38.8642ZM90.027 39.5433C89.5255 39.5433 89.2121 39.1881 89.2121 38.812C89.2121 38.3627 89.5255 38.1224 89.9434 38.0597L91.4792 37.8299V38.0597C91.4792 39.1567 90.8315 39.5433 90.027 39.5433ZM95.1428 42.3118L98.4129 35.1867H97.3577L95.8533 38.6552L94.2861 35.1867H93.1578L95.3204 39.6582L94.0667 42.3118H95.1428Z" fill="#686C75"/>
<rect x="66.1953" y="56.3306" width="9.40268" height="9.40268" rx="1.04474" fill="#E9E9E9"/>
<rect x="66.1953" y="70.957" width="9.40268" height="9.40268" rx="1.04474" fill="#E9E9E9"/>
<rect x="66.1953" y="85.5835" width="9.40268" height="9.40268" rx="1.04474" fill="#E9E9E9"/>
<rect x="66.1953" y="100.21" width="9.40268" height="9.40268" rx="1.04474" fill="#E9E9E9"/>
<rect x="66.1953" y="114.836" width="9.40268" height="9.40268" rx="1.04474" fill="#E9E9E9"/>
<rect x="52.6143" y="70.957" width="9.40268" height="9.40268" rx="1.04474" fill="#6942BD"/>
<rect x="52.6143" y="85.5835" width="9.40268" height="9.40268" rx="1.04474" fill="#E9E9E9"/>
<rect x="52.6143" y="100.21" width="9.40268" height="9.40268" rx="1.04474" fill="#E9E9E9"/>
<rect x="52.6143" y="114.836" width="9.40268" height="9.40268" rx="1.04474" fill="#E9E9E9"/>
<rect x="39.0322" y="70.957" width="9.40268" height="9.40268" rx="1.04474" fill="#E9E9E9"/>
<rect x="39.0322" y="85.5835" width="9.40268" height="9.40268" rx="1.04474" fill="#E9E9E9"/>
<rect x="39.0322" y="100.21" width="9.40268" height="9.40268" rx="1.04474" fill="#E9E9E9"/>
<rect x="39.0322" y="114.836" width="9.40268" height="9.40268" rx="1.04474" fill="#6942BD"/>
<rect x="79.7773" y="56.3306" width="9.40268" height="9.40268" rx="1.04474" fill="#E9E9E9"/>
<rect x="79.7773" y="70.957" width="9.40268" height="9.40268" rx="1.04474" fill="#E9E9E9"/>
<rect x="79.7773" y="85.5835" width="9.40268" height="9.40268" rx="1.04474" fill="#E9E9E9"/>
<rect x="79.7773" y="100.21" width="9.40268" height="9.40268" rx="1.04474" fill="#E9E9E9"/>
<rect x="79.7773" y="114.836" width="9.40268" height="9.40268" rx="1.04474" fill="#E9E9E9"/>
<rect x="93.3584" y="56.3306" width="9.40268" height="9.40268" rx="1.04474" fill="#E9E9E9"/>
<rect x="93.3584" y="70.957" width="9.40268" height="9.40268" rx="1.04474" fill="#E9E9E9"/>
<rect x="93.3584" y="85.5835" width="9.40268" height="9.40268" rx="1.04474" fill="#E9E9E9"/>
<rect x="93.3584" y="100.21" width="9.40268" height="9.40268" rx="1.04474" fill="#E9E9E9"/>
<rect x="106.94" y="56.3306" width="9.40268" height="9.40268" rx="1.04474" fill="#E9E9E9"/>
<rect x="106.94" y="70.957" width="9.40268" height="9.40268" rx="1.04474" fill="#E9E9E9"/>
<rect x="106.94" y="85.5835" width="9.40268" height="9.40268" rx="1.04474" fill="#E9E9E9"/>
<rect x="106.94" y="100.21" width="9.40268" height="9.40268" rx="1.04474" fill="#6942BD"/>
<rect x="120.521" y="56.3306" width="9.40268" height="9.40268" rx="1.04474" fill="#E9E9E9"/>
<rect x="120.521" y="70.957" width="9.40268" height="9.40268" rx="1.04474" fill="#E9E9E9"/>
<rect x="120.521" y="85.5835" width="9.40268" height="9.40268" rx="1.04474" fill="#E9E9E9"/>
<rect x="120.521" y="100.21" width="9.40268" height="9.40268" rx="1.04474" fill="#E9E9E9"/>
<line x1="130.969" y1="47.4501" x2="45.2999" y2="47.4501" stroke="#E9E9E9" stroke-width="1.04474"/>
<g filter="url(#filter1_d_8_90)">
<circle cx="32.7623" cy="30.2118" r="25.0738" fill="white"/>
</g>
<path d="M30.1515 45.8829C32.5165 45.8829 34.495 44.1969 34.9495 41.9651H25.3535C25.808 44.1969 27.7865 45.8829 30.1515 45.8829Z" fill="#6942BD"/>
<path d="M40.0448 33.4716C40.0108 33.4716 39.9795 33.4769 39.9455 33.4769C34.1851 33.4769 29.4981 28.7899 29.4981 23.0294C29.4981 20.7663 30.2294 18.6755 31.457 16.9621V15.8468C31.457 15.1246 30.872 14.5409 30.1511 14.5409C29.4302 14.5409 28.8452 15.1246 28.8452 15.8468V17.2572C24.422 17.8945 21.0096 21.6987 21.0096 26.2942V29.9352C21.0096 32.5196 19.8773 34.9591 17.891 36.6385C17.383 37.0734 17.0918 37.7055 17.0918 38.3741C17.0918 39.6343 18.117 40.6595 19.3772 40.6595H40.925C42.1852 40.6595 43.2104 39.6343 43.2104 38.3741C43.2104 37.7055 42.9191 37.0734 42.3981 36.6281C41.369 35.757 40.575 34.6731 40.0448 33.4716Z" fill="#6942BD"/>
<path d="M39.9456 14.5408C35.2651 14.5408 31.457 18.3489 31.457 23.0293C31.457 27.7098 35.2651 31.5178 39.9456 31.5178C44.626 31.5178 48.4341 27.7098 48.4341 23.0293C48.4341 18.3489 44.626 14.5408 39.9456 14.5408ZM43.2104 24.3352H41.2515V26.2941C41.2515 27.015 40.6664 27.6001 39.9456 27.6001C39.2247 27.6001 38.6396 27.015 38.6396 26.2941V24.3352H36.6807C35.9599 24.3352 35.3748 23.7502 35.3748 23.0293C35.3748 22.3084 35.9599 21.7234 36.6807 21.7234H38.6396V19.7645C38.6396 19.0436 39.2247 18.4586 39.9456 18.4586C40.6664 18.4586 41.2515 19.0436 41.2515 19.7645V21.7234H43.2104C43.9313 21.7234 44.5163 22.3084 44.5163 23.0293C44.5163 23.7502 43.9313 24.3352 43.2104 24.3352Z" fill="#6942BD"/>
<defs>
<filter id="filter0_d_8_90" x="2.46543" y="5.13795" width="175.517" height="175.517" filterUnits="userSpaceOnUse" color-interpolation-filters="sRGB">
<feFlood flood-opacity="0" result="BackgroundImageFix"/>
<feColorMatrix in="SourceAlpha" type="matrix" values="0 0 0 0 0 0 0 0 0 0 0 0 0 0 0 0 0 0 127 0" result="hardAlpha"/>
<feOffset dx="5.22371" dy="15.6711"/>
<feGaussianBlur stdDeviation="15.6711"/>
<feColorMatrix type="matrix" values="0 0 0 0 0 0 0 0 0 0 0 0 0 0 0 0 0 0 0.1 0"/>
<feBlend mode="normal" in2="BackgroundImageFix" result="effect1_dropShadow_8_90"/>
<feBlend mode="normal" in="SourceGraphic" in2="effect1_dropShadow_8_90" result="shape"/>
</filter>
<filter id="filter1_d_8_90" x="0.37528" y="0.95897" width="71.0425" height="71.0424" filterUnits="userSpaceOnUse" color-interpolation-filters="sRGB">
<feFlood flood-opacity="0" result="BackgroundImageFix"/>
<feColorMatrix in="SourceAlpha" type="matrix" values="0 0 0 0 0 0 0 0 0 0 0 0 0 0 0 0 0 0 127 0" result="hardAlpha"/>
<feOffset dx="3.13423" dy="6.26845"/>
<feGaussianBlur stdDeviation="5.22371"/>
<feColorMatrix type="matrix" values="0 0 0 0 0 0 0 0 0 0 0 0 0 0 0 0 0 0 0.08 0"/>
<feBlend mode="normal" in2="BackgroundImageFix" result="effect1_dropShadow_8_90"/>
<feBlend mode="normal" in="SourceGraphic" in2="effect1_dropShadow_8_90" result="shape"/>
</filter>
</defs>
</svg>
