<svg width="53" height="53" viewBox="0 0 53 53" fill="none" xmlns="http://www.w3.org/2000/svg">
<path d="M46.9675 10.1343C46.8736 10.0159 46.7757 9.89756 46.6736 9.7792C44.2683 6.91014 41.2723 4.59367 37.8902 2.98784C34.5081 1.38201 30.8194 0.524597 27.0758 0.474105C26.9493 0.470024 26.8268 0.465942 26.7003 0.465942C26.5738 0.465942 26.4514 0.470024 26.3249 0.474105C22.5671 0.525088 18.865 1.38902 15.4729 3.00654C12.0807 4.62406 9.079 6.95682 6.67395 9.8445C6.60542 9.91814 6.54137 9.99582 6.48214 10.0771C6.47908 10.0833 6.47493 10.0888 6.46989 10.0935C2.66175 14.746 0.581055 20.5732 0.581055 26.5855C0.581055 32.5979 2.66175 38.425 6.46989 43.0776C6.47493 43.0822 6.47908 43.0878 6.48214 43.0939C6.54137 43.1752 6.60543 43.2529 6.67395 43.3265L6.67803 43.3306C9.08279 46.2173 12.084 48.5492 15.4754 50.166C18.8668 51.7828 22.5681 52.6462 26.3249 52.6969C26.5754 52.7051 26.8252 52.7051 27.0758 52.6969C30.8194 52.6464 34.5081 51.789 37.8902 50.1832C41.2723 48.5774 44.2683 46.2609 46.6736 43.3918C46.7757 43.2735 46.8736 43.1551 46.9675 43.0368C50.7529 38.3897 52.8199 32.5793 52.8199 26.5855C52.8199 20.5918 50.7529 14.7814 46.9675 10.1343ZM41.1844 25.8713C41.144 22.0011 40.5853 18.1537 39.5234 14.4318C41.8483 13.698 44.0691 12.6679 46.1308 11.3668C49.3931 15.5122 51.2334 20.5982 51.3792 25.8713H41.1844ZM27.4145 1.93109C31.7773 2.38002 35.5728 6.88564 37.7644 13.4808C34.3908 14.4068 30.9126 14.8978 27.4145 14.9419V1.93109ZM25.9861 14.9419C22.488 14.8978 19.0099 14.4068 15.6362 13.4808C17.8278 6.88564 21.6233 2.38002 25.9861 1.93109V14.9419ZM25.9861 16.3703V25.8713H13.6446C13.6836 22.1426 14.2118 18.4351 15.2159 14.844C18.7258 15.8119 22.3455 16.3249 25.9861 16.3703ZM25.9861 27.2997V36.8007C22.3455 36.8462 18.7258 37.3592 15.2159 38.3271C14.2118 34.7359 13.6836 31.0284 13.6446 27.2997H25.9861ZM25.9861 38.2291V51.24C21.6233 50.791 17.8278 46.2854 15.6362 39.6902C19.0099 38.7643 22.488 38.2733 25.9861 38.2291ZM27.4145 38.2291C30.9126 38.2733 34.3908 38.7643 37.7644 39.6902C35.5728 46.2854 31.7773 50.791 27.4145 51.24V38.2291ZM27.4145 36.8007V27.2997H39.756C39.7171 31.0298 39.1888 34.7386 38.1848 38.3312C34.6758 37.3582 31.0556 36.8438 27.4145 36.8007ZM27.4145 25.8713V16.3703C31.0556 16.3273 34.6758 15.8129 38.1848 14.8399C39.1888 18.4325 39.7171 22.1413 39.756 25.8713H27.4145ZM45.2085 10.2567C43.2962 11.4481 41.2424 12.3955 39.0949 13.0768C37.5277 8.41609 35.1729 4.71037 32.3691 2.55143C37.3423 3.73141 41.8277 6.42325 45.2085 10.2567ZM21.0316 2.55143C18.2278 4.71037 15.8729 8.41609 14.3058 13.0768C12.1597 12.3934 10.1063 11.4475 8.19215 10.2608C11.5708 6.42401 16.057 3.73034 21.0316 2.55143ZM7.2698 11.3627C9.33122 12.6665 11.552 13.6994 13.8772 14.4358C12.815 18.1563 12.2563 22.0024 12.2162 25.8713H2.0214C2.16722 20.5969 4.0075 15.5097 7.2698 11.3627ZM12.2162 27.2997C12.2563 31.1687 12.815 35.0147 13.8772 38.7352V38.7393C11.5515 39.4727 9.3305 40.5043 7.2698 41.8083C4.0075 37.6613 2.16722 32.5741 2.0214 27.2997H12.2162ZM8.19215 42.9103C10.1063 41.7235 12.1597 40.7777 14.3058 40.0942C15.8729 44.755 18.2278 48.4607 21.0316 50.6196C16.057 49.4407 11.5709 46.747 8.19215 42.9103ZM32.3691 50.6196C35.1729 48.4607 37.5277 44.755 39.0949 40.0942C41.2424 40.7756 43.2962 41.723 45.2085 42.9143C41.8277 46.7478 37.3423 49.4396 32.3691 50.6196ZM46.1308 41.8043C44.0691 40.5032 41.8483 39.473 39.5234 38.7393C40.5853 35.0174 41.144 31.17 41.1844 27.2997H51.3792C51.2334 32.5729 49.3931 37.6588 46.1308 41.8043Z" fill="#6942BD"/>
</svg>
