<svg width="84" height="18" viewBox="0 0 84 18" fill="none" xmlns="http://www.w3.org/2000/svg">
<path d="M2.75586 16.3174L8.72254 4.38402C9.49256 2.84397 11.6903 2.84397 12.4603 4.38402L16.5581 12.5796C17.3281 14.1196 19.5259 14.1196 20.2959 12.5796L24.3937 4.38402C25.1637 2.84397 27.3614 2.84397 28.1315 4.38402L32.2292 12.5796C32.9993 14.1196 35.197 14.1196 35.967 12.5796L40.0648 4.38402C40.8348 2.84397 43.0326 2.84397 43.8026 4.38402L47.9004 12.5796C48.6704 14.1196 50.8681 14.1196 51.6382 12.5796L55.7359 4.38402C56.506 2.84397 58.7037 2.84397 59.4737 4.38402L63.5715 12.5796C64.3415 14.1196 66.5393 14.1196 67.3093 12.5796L71.4071 4.38402C72.1771 2.84397 74.3748 2.84397 75.1449 4.38402L81.1115 16.3174" stroke="#653EBC" stroke-width="5.22371"/>
</svg>
