<svg width="17" height="23" viewBox="0 0 17 23" fill="none" xmlns="http://www.w3.org/2000/svg">
<path d="M8.57583 1.05078C6.49844 1.0532 4.50683 1.87951 3.0379 3.34845C1.56896 4.81738 0.742654 6.80899 0.740234 8.88637C0.740234 14.1845 8.03452 21.5396 8.345 21.85C8.40623 21.9112 8.48926 21.9456 8.57583 21.9456C8.6624 21.9456 8.74543 21.9112 8.80665 21.85C9.11714 21.5396 16.4114 14.1845 16.4114 8.88637C16.409 6.80899 15.5827 4.81738 14.1138 3.34845C12.6448 1.87951 10.6532 1.0532 8.57583 1.05078V1.05078ZM8.57583 21.1504C7.32148 19.8399 1.3932 13.4052 1.3932 8.88637C1.3932 6.98142 2.14994 5.15449 3.49694 3.80749C4.84395 2.46049 6.67088 1.70375 8.57583 1.70375C10.4808 1.70375 12.3077 2.46049 13.6547 3.80749C15.0017 5.15449 15.7585 6.98142 15.7585 8.88637C15.7585 13.4052 9.83018 19.8399 8.57583 21.1504Z" fill="#989898" stroke="#989898" stroke-width="0.208948"/>
</svg>
